<svg xmlns="http://www.w3.org/2000/svg" aria-hidden="true" style="position:absolute;width:0;height:0;overflow:hidden"><defs>
<symbol id="icon-antenna" viewBox="0 0 40 40">
    <path d="M38.466 27.622 27.912 16.991l1.171-5.769c.302.118.624.18.948.182h.008a2.698 2.698 0 1 0 .063-5.397 2.698 2.698 0 0 0-2.574 3.603l-6.2.757L11.215.201a.662.662 0 0 0-.471-.2.67.67 0 0 0-.467.194l-1.891 1.88a.668.668 0 0 0 0 .943L9.403 4.05a18.68 18.68 0 0 0 3.149 22.079.63.63 0 0 0 .183.122 3.828 3.828 0 0 0-.065.684v7.733h-8a3.337 3.337 0 0 0-3.333 3.333v1.333c0 .368.299.667.667.667h30.667a.667.667 0 0 0 .667-.667v-1.333a3.337 3.337 0 0 0-3.333-3.333h-8v-3.427c1.253.263 2.53.397 3.811.4a18.558 18.558 0 0 0 8.8-2.229l1.023 1.029a.662.662 0 0 0 .471.2.67.67 0 0 0 .467-.194l1.891-1.88a.668.668 0 0 0 0-.943zM29.1 7.791a1.334 1.334 0 1 1 .94 2.279h-.004a1.333 1.333 0 0 1-.933-2.278H29.1zm-1.57 4.381-.748 3.682-1.469-1.478 2.217-2.204zm-.757-1.127-2.4 2.386-1.857-1.867 4.257-.519zM30.005 36a2 2 0 0 1 2 2v.667H2.672V38a2 2 0 0 1 2-2h25.333zm-9.333-2.667v1.333h-6.667v-1.333h6.667zM14.005 32v-5.067c0-1.617 1.495-2.933 3.333-2.933s3.333 1.316 3.333 2.933V32h-6.667zm8-2.12v-2.947c0-2.353-2.093-4.267-4.667-4.267a4.746 4.746 0 0 0-4.101 2.233A17.337 17.337 0 0 1 10.389 5.04l23.252 23.386a17.278 17.278 0 0 1-11.636 1.454zm14.111-.855L9.795 2.549l.943-.94 9.919 9.975c.005 0 .007.009.012.012l16.393 16.489-.946.94z"/><path d="M17.344 25.333h-.006a2 2 0 1 0-.006 4h.006a2 2 0 1 0 .006-4zm.467 2.473a.666.666 0 1 1-.473-1.139.667.667 0 0 1 .467 1.139h.006z"/></symbol>
<symbol id="icon-astronaut" viewBox="0 0 40 40">
    <path d="M39.968 5.655a.666.666 0 0 0-.538-.453l-2.388-.347-1.069-2.164c-.224-.456-.971-.456-1.195 0l-1.069 2.164-2.388.347a.666.666 0 0 0-.37 1.136l1.729 1.685-.408 2.379a.667.667 0 0 0 .968.703l2.136-1.123 2.136 1.123a.672.672 0 0 0 .703-.05.667.667 0 0 0 .265-.652l-.408-2.379 1.729-1.685a.668.668 0 0 0 .168-.683zm-3.079 1.659a.664.664 0 0 0-.191.59l.239 1.393-1.251-.657a.669.669 0 0 0-.622 0l-1.251.657.239-1.393a.67.67 0 0 0-.191-.59l-1.013-.987 1.399-.203a.665.665 0 0 0 .502-.365l.625-1.267.625 1.267a.668.668 0 0 0 .502.365l1.399.203-1.011.987zM32.667 25.653h-1.333v1.333h1.333v-1.333zM32.667 28.319h-1.333v1.333h1.333v-1.333zM34 26.986h-1.333v1.333H34v-1.333zM31.334 26.986h-1.333v1.333h1.333v-1.333zM28 32.986h-1.333v1.333H28v-1.333zM28 35.653h-1.333v1.333H28v-1.333zM29.334 34.32h-1.333v1.333h1.333V34.32zM26.667 34.32h-1.333v1.333h1.333V34.32zM20 30.32h-1.333v1.333H20V30.32zM20 32.986h-1.333v1.333H20v-1.333zM21.333 31.653H20v1.333h1.333v-1.333zM18.667 31.653h-1.333v1.333h1.333v-1.333zM7.333 7.652H6v1.333h1.333V7.652zM7.333 10.319H6v1.333h1.333v-1.333zM8.666 8.986H7.333v1.333h1.333V8.986zM6 8.986H4.667v1.333H6V8.986z"/><path d="M30.893 17.699a2.216 2.216 0 0 0-1.485-.881 2.224 2.224 0 0 0-1.675.44l-1.565 1.2-2.372 1.771-1.697-.676c3.027-1.358 5.142-4.385 5.142-7.9 0-4.779-3.903-8.667-8.701-8.667s-8.701 3.888-8.701 8.667c0 1.732.518 3.343 1.4 4.698l-3.455-.03h-.006c-.011 0-.019.005-.029.006a.65.65 0 0 0-.194.039c-.016.006-.033.009-.048.017-.008.003-.016.004-.024.008l-4.041 1.995-.001.001-2.367 1.138a.52.52 0 0 0-.079.044 2.225 2.225 0 0 0 .572 3.98 2.224 2.224 0 0 0 1.723-.161l1.735-.923 2.83-1.461 1.696-.01-6.802 6.769-.002.001-1.673 1.667c-.395.393-.613.915-.613 1.472s.217 1.079.613 1.473c.406.404.94.607 1.474.607s1.068-.203 1.475-.607l1.643-1.636 2.176-1.625 1.126 1.121-2.202 2.193-.002.001-1.673 1.667c-.395.393-.613.915-.613 1.472s.217 1.079.613 1.473c.406.404.941.607 1.475.607s1.069-.203 1.475-.607l4.352-4.333.001-.002 1.262-1.25-.005-.005c.008-.008.019-.011.027-.019l6.457-7.073 4.339.617a.595.595 0 0 0 .328-.041c.022-.008.041-.019.062-.029.024-.012.049-.019.072-.034l4.017-2.667c.015-.01.023-.026.037-.037.016-.013.036-.018.051-.032l1.589-1.489a2.224 2.224 0 0 0 .265-2.952zm-28.23 4.514a.894.894 0 0 1-.698.065.894.894 0 0 1-.265-1.574l1.642-.79.561 1.641-1.24.659zm4.371-2.285-1.935 1-.549-1.604 2.533-1.251-.049 1.855zm18.875-8.276a7.239 7.239 0 0 1-.749 3.199l-5.227-2.374a2.33 2.33 0 0 0-.985-1.735l1.83-6.075c2.972.945 5.131 3.718 5.131 6.985zm-14.736 0c0-4.043 3.305-7.333 7.368-7.333.316 0 .625.027.931.065l-1.79 5.942c-.024-.001-.047-.007-.071-.007-1.291 0-2.341 1.047-2.341 2.333s1.05 2.333 2.341 2.333c.868 0 1.618-.479 2.023-1.181l4.828 2.193a7.364 7.364 0 0 1-5.921 2.987c-4.063 0-7.368-3.29-7.368-7.334zm7.445 1.001c0 .551-.452 1-1.007 1s-1.007-.449-1.007-1c0-.551.452-1 1.007-1s1.007.449 1.007 1zM3.081 31.433a.76.76 0 0 1-1.068.001.742.742 0 0 1 0-1.056l1.203-1.198 1.064 1.059-1.199 1.193zM7.098 36.1a.76.76 0 0 1-1.069.001.742.742 0 0 1 0-1.056l1.203-1.199 1.065 1.059-1.199 1.194zm4.353-4.336-.002.001-2.206 2.2-1.065-1.059 2.204-2.194v-.001l.002-.001c.05-.05.081-.11.112-.169.009-.017.025-.032.033-.05.021-.051.024-.107.032-.161.004-.031.017-.059.017-.091 0-.045-.016-.088-.025-.132-.008-.04-.008-.081-.023-.119a.66.66 0 0 0-.114-.172c-.013-.015-.017-.033-.031-.047h-.001l-.001-.003-2.009-2c-.021-.021-.049-.03-.073-.048a.605.605 0 0 0-.109-.072.625.625 0 0 0-.117-.041.7.7 0 0 0-.129-.025.59.59 0 0 0-.119.006.636.636 0 0 0-.13.025c-.042.013-.079.034-.118.056-.025.014-.053.019-.076.036l-2.217 1.655-1.126-1.121 2.999-2.983 5.451 5.361-1.159 1.149zm8.523-8.771c-.019-.003-.037.005-.057.003a.68.68 0 0 0-.254.036.699.699 0 0 0-.225.136c-.016.014-.035.021-.05.037l-5.873 6.432-5.41-5.321 3.541-3.523a.667.667 0 0 0-.475-1.138v-.001l-2.773.017.035-2.009 3.88.033a8.687 8.687 0 0 0 6.227 2.626c.547 0 1.08-.057 1.599-.153.05.04.099.081.162.106l3.012 1.2.191.948.223 1.107-3.753-.534zm5.051.222-.391-1.947 1.808-1.35 1.183 1.571-2.6 1.727zm4.692-3.538-1.047.981-1.164-1.545 1.039-.797a.92.92 0 0 1 .679-.179.9.9 0 0 1 .6.355.892.892 0 0 1-.107 1.184z"/><path d="m17.003 23.18-2.679-2.667a.667.667 0 0 0-.941 0l-2.678 2.667a.67.67 0 0 0 0 .946l2.678 2.667a.668.668 0 0 0 .941 0l2.679-2.667a.67.67 0 0 0 0-.946zm-3.149 2.199-1.733-1.726 1.733-1.726 1.734 1.726-1.734 1.726zM21.455 6.338l-.322 1.295c.089.022 2.172.565 2.172 2.686h1.333c0-2.521-2.082-3.707-3.183-3.981zM24.639 11.652h-1.333v1.333h1.333v-1.333z"/></symbol>
<symbol id="icon-brand" viewBox="0 0 55 40">
    <path d="M4.167 33.368c.213.238.327.536.321.841.011.199-.028.398-.114.582s-.217.348-.383.48c-.415.282-.928.42-1.447.388H0v-5.333h2.491c.492-.029.98.096 1.38.354.161.121.288.274.372.448s.122.361.111.55c.015.294-.088.583-.289.815a1.38 1.38 0 0 1-.758.417c.337.055.642.217.859.456zm-2.983-.805h1.065c.242.016.482-.047.677-.177.08-.065.142-.146.182-.237s.056-.188.047-.284c.007-.097-.009-.193-.048-.283s-.1-.171-.178-.238a1.115 1.115 0 0 0-.697-.18H1.185v1.399zm1.846 2.045c.085-.067.153-.15.196-.244s.063-.196.055-.297c.007-.103-.013-.206-.058-.301s-.113-.179-.2-.247a1.191 1.191 0 0 0-.723-.193H1.183v1.467h1.131c.255.013.507-.052.715-.185zM9.26 35.66l-1.386-2.084h-.521v2.084H6.161v-5.333h2.257a2.395 2.395 0 0 1 1.571.453c.315.289.506.671.537 1.075s-.1.806-.369 1.131a1.895 1.895 0 0 1-1.076.542l1.476 2.131H9.261zm-1.907-2.811h.975c.677 0 1.016-.269 1.016-.808.007-.11-.012-.22-.055-.323s-.109-.197-.194-.276a1.137 1.137 0 0 0-.767-.216h-.987l.012 1.623zM15.776 34.587H13.4l-.42 1.073h-1.25l2.182-5.273h1.351l2.173 5.273h-1.25l-.411-1.073zm-.318-.807-.868-2.251-.868 2.251h1.736zM23.933 35.66H22.75l-2.653-3.626v3.626h-1.181v-5.333h1.181l2.653 3.647v-3.647h1.183v5.333zM30.687 34.384a2.45 2.45 0 0 1-1.071.94 3.81 3.81 0 0 1-1.664.336h-2.107v-5.333h2.107a3.885 3.885 0 0 1 1.664.328c.453.205.826.53 1.071.93.244.434.371.913.371 1.399s-.127.965-.371 1.399zm-1.354-.128c.338-.354.523-.806.523-1.273s-.186-.918-.523-1.273a2.202 2.202 0 0 0-1.482-.453h-.822v3.452h.822a2.204 2.204 0 0 0 1.482-.453zM16.517.667s15.276 5.192 14.951 12.705v12.707s-15.264-5.194-14.946-12.707L16.516.667zM45.077 23.104c2.885-1.787 6.222-2.894 9.705-3.22v-3.978c-4.014 1.393-7.419 3.918-9.705 7.198z"/><path d="M43.344 24.302c2.361-4.28 6.455-7.583 11.439-9.23V3.61s-21.755 7.396-21.294 18.095v18.092s.969-.331 2.494-.951c0-.578 0-1.162.069-1.748.45-4.967 3.073-9.57 7.292-12.796z"/><path d="M41.275 31.023c.114-1.255.369-2.496.761-3.704-2.627 2.786-4.218 6.244-4.549 9.886a15.44 15.44 0 0 0-.058 1.042 65.736 65.736 0 0 0 4.184-1.985 16.937 16.937 0 0 1-.339-5.239zM42.14 31.089a16.154 16.154 0 0 0 .269 4.744c5.944-3.202 12.622-8.149 12.365-14.127v-.521c-4.246.428-8.219 2.099-11.308 4.757a16.356 16.356 0 0 0-1.325 5.148z"/></symbol>
<symbol id="icon-clock" viewBox="0 0 40 40">
    <path d="M39.121 19.127C39.119 8.562 30.552-.002 19.986 0S.857 8.569.859 19.135a19.131 19.131 0 0 0 13.312 18.22.773.773 0 0 0 .234.036.847.847 0 0 0 .428-.117.797.797 0 0 0 .354-.446l4.831-15.313a2.391 2.391 0 1 0-1.05-4.544l-6.382-6.383a.797.797 0 0 0-1.127 1.127l6.379 6.386a2.344 2.344 0 0 0 .671 2.886l-4.603 14.591C4.809 32.227.15 22.136 3.502 13.038S16.944-.718 26.042 2.634c9.097 3.351 13.756 13.443 10.404 22.54a17.552 17.552 0 0 1-9.328 9.967l-.497-2.343a.797.797 0 0 0-1.311-.43l-4.796 4.282a.797.797 0 0 0 .289 1.356l6.123 1.954a.796.796 0 0 0 1.023-.925l-.489-2.299a19.07 19.07 0 0 0 11.661-17.611zm-19.131-.798a.797.797 0 1 1 0 1.594.797.797 0 0 1 0-1.594zm2.626 18.58 2.73-2.435.754 3.55-3.484-1.115z"/><path d="M19.193 3.981v1.594a.797.797 0 0 0 1.594 0V3.981a.797.797 0 0 0-1.594 0zM4.845 18.329a.797.797 0 0 0 0 1.594h1.594a.797.797 0 0 0 0-1.594H4.845zM35.135 19.924a.797.797 0 0 0 0-1.594h-1.594a.797.797 0 0 0 0 1.594h1.594z"/></symbol>
<symbol id="icon-company" viewBox="0 0 43 40">
    <path d="M6.644 39.242c.016 0 .031.003.046.009s.027.013.038.023l.215.203a1.766 1.766 0 0 1-.606.384 2.415 2.415 0 0 1-.859.138 2.316 2.316 0 0 1-.808-.129 1.787 1.787 0 0 1-.609-.364 1.625 1.625 0 0 1-.393-.561 1.833 1.833 0 0 1-.137-.72 1.716 1.716 0 0 1 .148-.723c.094-.209.236-.4.417-.561.184-.159.404-.283.646-.366.265-.088.548-.132.832-.129.264-.005.527.034.773.117.213.079.409.189.579.324l-.18.216a.176.176 0 0 1-.046.039.121.121 0 0 1-.073.016.186.186 0 0 1-.078-.023l-.097-.058-.135-.074a1.566 1.566 0 0 0-.425-.129 1.907 1.907 0 0 0-.32-.023 1.773 1.773 0 0 0-.598.097 1.376 1.376 0 0 0-.469.272 1.245 1.245 0 0 0-.304.433 1.427 1.427 0 0 0-.11.571c-.003.197.034.394.11.58a1.228 1.228 0 0 0 .746.697c.176.062.364.094.555.092.11.001.22-.005.329-.018a1.318 1.318 0 0 0 .711-.297.167.167 0 0 1 .102-.037zM12.865 38.225c.003.244-.046.487-.145.716-.088.208-.226.397-.406.556s-.397.283-.636.365a2.661 2.661 0 0 1-1.637 0 1.904 1.904 0 0 1-.633-.366 1.61 1.61 0 0 1-.409-.561 1.84 1.84 0 0 1 0-1.434c.092-.209.231-.401.409-.564a1.91 1.91 0 0 1 .633-.352 2.618 2.618 0 0 1 1.637 0c.239.083.456.208.636.366a1.643 1.643 0 0 1 .552 1.275zm-.566 0c.004-.195-.03-.39-.102-.575a1.172 1.172 0 0 0-.288-.43 1.296 1.296 0 0 0-.455-.272 1.92 1.92 0 0 0-1.19 0c-.173.06-.329.153-.455.272a1.16 1.16 0 0 0-.291.43 1.663 1.663 0 0 0 0 1.151c.061.159.16.306.291.43.126.118.282.209.455.269.384.123.807.123 1.19 0a1.29 1.29 0 0 0 .455-.269c.129-.125.227-.272.288-.43a1.48 1.48 0 0 0 .102-.575zM17.109 38.828l.057.129c.022-.046.04-.087.062-.129.02-.043.044-.085.07-.127l1.376-2.137c.027-.037.051-.06.078-.067a.43.43 0 0 1 .113-.012h.407v3.477h-.482v-2.664a.801.801 0 0 1 0-.12l-1.384 2.167c-.018.032-.046.06-.081.079s-.076.029-.118.029h-.078c-.042 0-.083-.009-.118-.029s-.064-.047-.081-.08l-1.425-2.181v2.79h-.466v-3.47h.407a.36.36 0 0 1 .113.012.15.15 0 0 1 .075.067l1.406 2.14c.028.04.051.081.07.124zM22.287 38.655v1.302h-.539v-3.472h1.201c.227-.004.453.022.671.076.174.042.336.116.474.216.12.094.212.211.269.34.064.142.095.292.092.444a.964.964 0 0 1-.391.791 1.39 1.39 0 0 1-.477.23 2.32 2.32 0 0 1-.649.08l-.652-.009zm0-.372h.652c.142.002.282-.016.417-.053a.92.92 0 0 0 .302-.15.665.665 0 0 0 .248-.522c.006-.097-.012-.193-.054-.283s-.106-.171-.188-.237a1.17 1.17 0 0 0-.724-.186h-.652v1.431zM29.526 39.962H29.1a.205.205 0 0 1-.118-.032.213.213 0 0 1-.07-.08l-.366-.84h-1.839l-.38.84a.202.202 0 0 1-.188.113h-.426l1.616-3.477h.56l1.637 3.477zm-2.666-1.291h1.519l-.641-1.415a2.296 2.296 0 0 1-.121-.327l-.062.182c-.019.055-.04.106-.059.147l-.636 1.413zM31.853 36.501c.032.015.06.036.081.062l2.356 2.621V36.485h.482v3.477h-.269a.257.257 0 0 1-.11-.021.311.311 0 0 1-.086-.064l-2.354-2.619c.003.04.003.08 0 .12v2.584h-.482v-3.477h.285a.267.267 0 0 1 .097.016zM38.742 38.579v1.381h-.539v-1.381l-1.489-2.094h.482a.192.192 0 0 1 .116.03.317.317 0 0 1 .073.078l.932 1.351a1.441 1.441 0 0 1 .164.308l.07-.15a1.15 1.15 0 0 1 .092-.159l.918-1.36a.376.376 0 0 1 .07-.074.186.186 0 0 1 .116-.035h.487l-1.492 2.103zM16.842 30.651c.234.025.471.046.711.064 3.634-1.389 6.708-3.662 8.838-6.535s3.222-6.219 3.138-9.62l-4.004-3.422c.814 3.62.433 7.363-1.1 10.809s-4.159 6.459-7.582 8.703z"/><path d="m15.412 30.492.108.018c3.658-2.236 6.448-5.358 8.007-8.963s1.817-7.526.74-11.257l-5.704-4.873c2.307 4.006 3.236 8.489 2.678 12.928s-2.579 8.651-5.829 12.147zM34.756 18.578c-.969 3.736-3.323 7.106-6.711 9.608a21.41 21.41 0 0 1-3.189 1.956c2.759-.693 5.295-1.918 7.413-3.581s3.76-3.719 4.8-6.009l-2.313-1.974z"/><path d="m33.849 18.028-3.294-2.814c-.063 3.208-1.13 6.344-3.092 9.08s-4.744 4.974-8.06 6.481h.016c.739 0 1.477-.038 2.211-.113 3.099-1.081 5.836-2.8 7.968-5.005s3.592-4.826 4.25-7.63zM15.889 3.362 11.96 0C8.448 1.16 5.427 3.198 3.293 5.849S.012 11.64.001 14.857c.013 3.555 1.414 7.005 3.98 9.803s6.151 4.786 10.188 5.648c3.604-3.751 5.714-8.387 6.023-13.233s-1.198-9.65-4.302-13.714zM42.927 17.51c-.014-4.218-1.982-8.26-5.472-11.242s-8.221-4.663-13.158-4.676a21.25 21.25 0 0 0-6.671 1.061l24.057 20.554a13.731 13.731 0 0 0 1.244-5.697z"/></symbol><symbol id="icon-company-tag-line" viewBox="0 0 84 40"><path d="M42.248 19.061a2.627 2.627 0 0 1-.539-1.771v-2.567c0-.787.179-1.385.536-1.794s.971-.613 1.84-.611c.817 0 1.397.174 1.74.522.374.444.556.988.514 1.536v.603h-1.462v-.611c.005-.2-.009-.4-.042-.598a.58.58 0 0 0-.209-.355.845.845 0 0 0-.53-.138.896.896 0 0 0-.557.146.686.686 0 0 0-.242.392 2.943 2.943 0 0 0-.057.635v3.116c-.023.301.041.601.188.875.073.093.174.166.292.212s.249.063.377.049a.794.794 0 0 0 .517-.141.626.626 0 0 0 .218-.379c.034-.207.049-.415.045-.624v-.632h1.462v.577a2.355 2.355 0 0 1-.505 1.614c-.336.381-.908.572-1.749.572s-1.477-.204-1.837-.627zM48.334 19.087c-.369-.4-.554-.982-.554-1.752v-2.7c0-.763.185-1.34.554-1.731s.987-.587 1.852-.585c.859 0 1.474.195 1.843.585.369.392.557.969.557 1.731v2.7c0 .763-.188 1.348-.563 1.75s-.987.603-1.837.603-1.48-.204-1.852-.601zm2.534-.648c.132-.25.192-.524.176-.799v-3.306a1.46 1.46 0 0 0-.173-.783c-.074-.095-.178-.169-.298-.215s-.254-.062-.385-.046c-.131-.016-.265 0-.386.046s-.225.12-.301.215a1.433 1.433 0 0 0-.175.783v3.322c-.018.275.042.549.175.799.085.084.19.152.308.198a1.037 1.037 0 0 0 .752 0 .906.906 0 0 0 .308-.198v-.016zM54.345 12.396h1.574l1.183 4.982 1.211-4.982h1.531l.154 7.192h-1.132l-.121-4.998-1.168 4.998h-.908l-1.211-5.016-.112 5.016h-1.144l.142-7.192zM61.763 12.396h2.451c1.412 0 2.118.681 2.118 2.042 0 1.304-.743 1.955-2.23 1.953h-.835v3.196h-1.513l.009-7.192zm2.094 3.074c.149.016.301.005.445-.035s.276-.105.387-.193c.174-.243.25-.528.218-.812a2.221 2.221 0 0 0-.073-.653c-.022-.072-.059-.139-.111-.197s-.117-.108-.191-.145a1.574 1.574 0 0 0-.675-.115h-.587v2.149h.587zM68.514 12.396h1.625l1.668 7.192h-1.41l-.33-1.658h-1.45l-.339 1.658h-1.431l1.667-7.192zm1.39 4.701-.566-3.019-.566 3.019h1.132zM73.154 12.396h1.059l2.028 4.102v-4.102h1.256v7.192h-1.008l-2.04-4.283v4.283h-1.298l.003-7.192zM80.438 16.846l-1.686-4.439h1.419l1.029 2.852.965-2.852h1.389l-1.665 4.439v2.742h-1.453v-2.742zM44.585 22.732v.376H43.35v2.922h-.518v-2.922h-1.241v-.376h2.993zM48.455 26.031h-.399a.18.18 0 0 1-.112-.031.175.175 0 0 1-.067-.076l-.357-.783h-1.713l-.357.783a.223.223 0 0 1-.054.089.183.183 0 0 1-.112.031h-.399l1.513-3.298h.527l1.531 3.285zm-2.506-1.225h1.429l-.605-1.342a2.358 2.358 0 0 1-.112-.311c-.021.063-.039.123-.057.175l-.054.138-.599 1.34zM51.064 25.707c.095.004.19.004.284 0a2.004 2.004 0 0 0 .46-.099c.067-.023.133-.052.203-.081v-.742h-.605a.125.125 0 0 1-.082-.026c-.01-.007-.018-.017-.023-.027s-.008-.022-.007-.033v-.253h1.174v1.264a2.282 2.282 0 0 1-.639.269c-.124.031-.25.054-.378.068a4.654 4.654 0 0 1-.442.021 2.31 2.31 0 0 1-.763-.123 1.863 1.863 0 0 1-.605-.345 1.582 1.582 0 0 1-.39-.522 1.646 1.646 0 0 1-.139-.684 1.712 1.712 0 0 1 .136-.689c.087-.195.22-.373.39-.522.173-.148.379-.265.605-.342.259-.084.534-.126.811-.123.141 0 .282.009.421.029a1.984 1.984 0 0 1 .663.215c.093.052.181.109.263.172l-.145.204c-.011.019-.028.034-.049.045s-.045.017-.069.017a.2.2 0 0 1-.094-.026 2 2 0 0 1-.148-.078 1.273 1.273 0 0 0-.203-.089 1.862 1.862 0 0 0-.662-.102c-.2-.002-.398.029-.584.091a1.28 1.28 0 0 0-.445.261 1.169 1.169 0 0 0-.282.41 1.542 1.542 0 0 0 0 1.099c.066.155.169.297.303.415.124.113.275.202.442.261a1.7 1.7 0 0 0 .599.065zM55.888 25.654h1.652v.376h-2.158v-3.298h.517l-.012 2.922zM59.26 26.03h-.518v-3.298h.518v3.298zM61.184 22.748a.25.25 0 0 1 .079.06l2.212 2.486a.762.762 0 0 1 0-.117V22.72h.451v3.312h-.26a.252.252 0 0 1-.112-.018.299.299 0 0 1-.082-.063l-2.209-2.484v2.565h-.433v-3.298h.269c.029 0 .058.005.085.016zM67.737 22.732v.363h-1.834v1.089h1.486v.35h-1.486v1.126h1.834v.363H65.37v-3.291h2.367zM13.507 2.363l22.979 5.63v19.729l-22.979-5.628V2.362zM12.033.682v22.372l25.924 6.354V7.038L12.033.682z"/><path d="M25.927 39.793 0 33.434v-22.37l25.927 6.356v22.372z"/><path d="m12.463 2.11 22.68 5.56-9.645 8.325-22.683-5.562 9.648-8.322zm-.43-1.428L0 11.065l25.927 6.356 12.03-10.383L12.033.682zM27.386 38.534l10.571-9.124-10.571-2.593v11.717z"/>
    </symbol>
<symbol id="icon-company-tagline-here" viewBox="0 0 36 40">
    <path d="M15.935 2.215h-.103c-.158-.01-.317-.013-.475-.017h-.344c-.3 0-.605.008-.909.023a.397.397 0 0 0-.069 0 21.334 21.334 0 0 0-7.937 2.025l-.326.157v16.71l.764-.259c.67-.23 1.384-.438 2.123-.629a25.92 25.92 0 0 1 6.11-.812v2.195c-.273.002-.538.01-.804.023h-.063a24.426 24.426 0 0 0-4.701.722 23.853 23.853 0 0 0-5.6 2.182V3.104A22.432 22.432 0 0 1 9.476.715a22.49 22.49 0 0 1 5.537-.714h.323c.386.01.762.027 1.115.054.931.065 1.854.212 2.759.439v2.161a16.996 16.996 0 0 0-2.673-.403l-.055-.005a6.554 6.554 0 0 0-.547-.032zm3.803 2.209c.479.036.976.054 1.478.054a23.715 23.715 0 0 0 5.821-.747 23.992 23.992 0 0 0 5.598-2.184v21.05a22.493 22.493 0 0 1-5.877 2.389 22.631 22.631 0 0 1-5.537.712 16.936 16.936 0 0 1-4.2-.495V4.017c.325.075.659.144.998.202.558.094 1.146.163 1.718.205zm10.713.163-.764.257c-.703.236-1.411.447-2.123.635a25.864 25.864 0 0 1-6.344.814c-.498 0-.956-.013-1.399-.042l-.609-.04v17.19l.523.046c.485.042.985.063 1.489.063a20.245 20.245 0 0 0 4.996-.647 20.923 20.923 0 0 0 3.904-1.403l.326-.157V4.587zM5.085 31.858a1.119 1.119 0 0 0-.85-.343 1.27 1.27 0 0 0-.491.092 1.09 1.09 0 0 0-.628.635c-.06.151-.09.312-.088.474v2.863c-.007.202.032.403.113.587.068.147.165.278.286.384a.998.998 0 0 0 .393.203c.139.039.283.059.428.059.159.002.317-.033.462-.1a1.22 1.22 0 0 0 .382-.265 1.242 1.242 0 0 0 .342-.841v-.32h-.748v.255a.672.672 0 0 1-.044.255.442.442 0 0 1-.109.161.523.523 0 0 1-.314.11.377.377 0 0 1-.351-.153.674.674 0 0 1-.099-.384v-2.67a.906.906 0 0 1 .092-.428.382.382 0 0 1 .367-.173.403.403 0 0 1 .334.161c.084.11.128.245.124.384v.248h.741v-.292a1.344 1.344 0 0 0-.092-.501 1.172 1.172 0 0 0-.25-.403zM9.531 31.826a1.331 1.331 0 0 0-.851-.315 1.313 1.313 0 0 0-.447.081 1.166 1.166 0 0 0-.685.635 1.354 1.354 0 0 0-.109.555v2.746c-.005.193.032.385.109.562.068.148.167.279.29.384.114.106.249.188.395.242a1.263 1.263 0 0 0 .894 0c.149-.054.286-.136.405-.242a1.18 1.18 0 0 0 .283-.384c.077-.177.114-.369.109-.562v-2.746a1.322 1.322 0 0 0-.109-.555 1.244 1.244 0 0 0-.283-.401zm-.349 3.702a.498.498 0 0 1-.149.398.548.548 0 0 1-.704 0 .51.51 0 0 1-.149-.398v-2.746a.498.498 0 0 1 .149-.398.546.546 0 0 1 .704 0 .51.51 0 0 1 .149.398v2.746zM15.372 36.754v-5.199h-.72l-.945 2.752h-.013l-.953-2.752h-.712v5.199h.743v-3.163h.013l.727 2.236h.37l.733-2.236h.013v3.163h.743zM19.591 31.92a1.032 1.032 0 0 0-.42-.284 1.642 1.642 0 0 0-.538-.081H17.53v5.199h.741v-2.031h.382c.231.011.461-.038.668-.142.168-.094.309-.231.407-.397.086-.138.143-.292.17-.453.029-.196.043-.393.04-.591a2.948 2.948 0 0 0-.073-.743 1.102 1.102 0 0 0-.273-.478zm-.382 1.585a.659.659 0 0 1-.069.271.41.41 0 0 1-.191.182.762.762 0 0 1-.349.065h-.338v-1.768h.382a.71.71 0 0 1 .334.065.421.421 0 0 1 .174.192c.041.091.063.19.065.29v.345c0 .12.008.246 0 .357h-.008zM23.1 31.555h-.607l-1.146 5.199h.741l.218-1.117h1.01l.218 1.117h.741l-1.174-5.199zm-.683 3.374.365-1.885h.013l.363 1.885h-.741zM27.887 34.687h-.013l-1.119-3.132h-.712v5.199h.741v-3.126h.015l1.132 3.126h.697v-5.199h-.741v3.132zM32.413 31.555l-.596 2.067h-.015l-.596-2.067h-.785l1.018 3.002v2.197h.741v-2.197l1.018-3.002h-.785zM3.019 38.222h.357v1.002h.242v-1.002h.355v-.205h-.955v.205zM6.02 38.017l-.468 1.207h.258l.099-.274h.481l.103.274h.263l-.479-1.207h-.258zm-.038.729.164-.447.164.447h-.328zM8.987 38.779h.279v.155a.465.465 0 0 1-.286.102.302.302 0 0 1-.256-.115.505.505 0 0 1-.09-.315c0-.269.116-.403.347-.403a.256.256 0 0 1 .273.192l.239-.046c-.052-.236-.221-.355-.512-.355a.608.608 0 0 0-.422.155.589.589 0 0 0-.174.464.657.657 0 0 0 .155.453.593.593 0 0 0 .458.177.73.73 0 0 0 .512-.192v-.476h-.523v.203zM12.017 38.017h-.244v1.207h.846v-.205h-.601v-1.002zM14.579 38.017h-.244v1.207h.244v-1.207zM17.084 38.823l-.494-.806h-.237v1.207h.227v-.789l.485.789h.242v-1.207h-.223v.806zM19.349 38.692h.601v-.205h-.601v-.265h.647v-.205h-.892v1.207h.916v-.205h-.672v-.326zM24.839 38.493h-.475v-.476h-.242v1.207h.242v-.528h.475v.528h.242v-1.207h-.242v.476zM27.117 38.692h.603v-.205h-.603v-.265h.649v-.205h-.892v1.207h.914v-.205h-.672v-.326zM30.206 38.693c.21-.033.317-.144.317-.336a.292.292 0 0 0-.119-.269.684.684 0 0 0-.353-.071h-.512v1.207h.242v-.505h.048a.327.327 0 0 1 .151.027.259.259 0 0 1 .086.088l.263.384h.29l-.147-.236a.844.844 0 0 0-.267-.29zm-.244-.167h-.179v-.303h.191a.622.622 0 0 1 .246.029.154.154 0 0 1 .053.126c-.001.024-.007.047-.019.067s-.027.039-.046.053a.707.707 0 0 1-.246.029zM32.536 38.692h.601v-.205h-.601v-.265h.649v-.205h-.894v1.207h.916v-.205h-.672v-.326z"/></symbol>
<symbol id="icon-diagram" viewBox="0 0 40 40">
    <path d="M18.657 18.706h1.333v5.997h-1.333v-5.997zM23.987 21.371h1.333v3.332h-1.333v-3.332zM13.326 23.37h1.333v1.333h-1.333V23.37zM9.328 22.704h1.333v1.999H9.328v-1.999z"/><path d="M1.999 35.364h31.983a1.999 1.999 0 0 0 1.999-1.999V30.7a1.999 1.999 0 0 0-1.999-1.999h-.666V12.084l3.785-3.585a2.011 2.011 0 1 0-.933-.953l-2.852 2.703V8.712a1.999 1.999 0 0 0-1.999-1.999H4.664a1.999 1.999 0 0 0-1.999 1.999v19.99h-.666A1.999 1.999 0 0 0 0 30.701v2.665c0 1.104.895 1.999 1.999 1.999zM37.98 6.046a.666.666 0 1 1 0 1.332.666.666 0 0 1 0-1.332zM3.998 8.711c0-.368.298-.666.666-.666h26.653c.368 0 .666.298.666.666v2.798l-1.333 1.266v-2.732a.666.666 0 0 0-.666-.666H5.997a.666.666 0 0 0-.666.666v16.658c0 .368.298.666.666.666h23.987a.666.666 0 0 0 .666-.666V14.608l1.333-1.263V28.7H3.998V8.71zm5.997 8.662a1.999 1.999 0 1 0 1.384 3.436l2.316 1.162a.665.665 0 0 0 .795-.153l4.924-5.539 4.84 3.627c.26.195.622.174.858-.049l4.206-3.985v10.164H6.663V10.711h22.655v3.325L24.604 18.5l-4.881-3.659a.667.667 0 0 0-.898.09l-4.991 5.616-1.866-.933c.014-.08.022-.161.025-.242a1.999 1.999 0 0 0-1.999-1.999zm.666 1.999a.666.666 0 1 1-1.332 0 .666.666 0 0 1 1.332 0zm3.998 10.661h6.663v.666a.666.666 0 0 1-.666.666h-5.331a.666.666 0 0 1-.666-.666v-.666zm-13.326.666c0-.368.298-.666.666-.666h11.327v.666c0 1.104.895 1.999 1.999 1.999h5.331a1.999 1.999 0 0 0 1.999-1.999v-.666h11.327c.368 0 .666.298.666.666v2.665a.666.666 0 0 1-.666.666H1.999a.666.666 0 0 1-.666-.666v-2.665z"/></symbol>
<symbol id="icon-facebook" viewBox="0 0 40 40">
    <path d="M26.662 6.641h3.652V.281c-.63-.087-2.797-.282-5.32-.282-5.265 0-8.872 3.312-8.872 9.398v5.602h-5.81v7.11h5.81v17.89h7.123V22.111h5.575l.885-7.11h-6.462v-4.898c.002-2.055.555-3.462 3.418-3.462z"/></symbol>
<symbol id="icon-foster-peters" viewBox="0 0 82 40">
    <path d="M12.759 12.213h-.003c-2.327 0-4.214 1.701-4.214 3.8v.003c0 2.098 1.887 3.799 4.214 3.799h.003c2.327 0 4.214-1.701 4.214-3.799v-.003c0-2.098-1.887-3.8-4.214-3.8zM43.865 10.998c-.007-2.915-1.293-5.708-3.579-7.769S34.902.007 31.67 0c-3.234.005-6.333 1.166-8.62 3.227s-3.574 4.856-3.581 7.771V27.07S43.863 24.62 43.865 11v-.002zM0 32.346c.006 2.028.902 3.972 2.492 5.406s3.745 2.243 5.995 2.249c2.249-.006 4.404-.814 5.994-2.248s2.486-3.377 2.493-5.404V21.165S0 22.871 0 32.346zm8.487 2.003c-.44 0-.869-.118-1.235-.338s-.65-.533-.819-.899-.212-.769-.126-1.158c.086-.389.297-.746.608-1.026s.707-.471 1.138-.548c.431-.077.878-.038 1.284.114s.753.408.997.738c.244.329.375.717.375 1.113.001.264-.056.525-.167.769s-.275.466-.481.653c-.207.187-.452.335-.722.436s-.56.153-.852.153v-.008zM24.009 30.746v4.162h-.857v-4.162h.857zm1.657 1.778v.669h-1.892v-.669h1.892zm.201-1.778v.672h-2.092v-.672h2.092zm3.915 1.984v.197c0 .316-.043.6-.129.852s-.207.466-.363.643c-.156.175-.343.31-.56.403-.215.093-.454.14-.717.14-.261 0-.5-.047-.717-.14a1.608 1.608 0 0 1-.56-.403 1.895 1.895 0 0 1-.369-.643 2.625 2.625 0 0 1-.129-.852v-.197c0-.318.043-.602.129-.852.086-.252.207-.466.363-.643a1.59 1.59 0 0 1 .56-.406c.217-.093.456-.14.717-.14.263 0 .502.047.717.14.217.093.404.229.56.406.158.177.28.392.366.643.088.25.132.533.132.852zm-.866.197v-.203c0-.221-.02-.415-.06-.583s-.099-.309-.177-.423-.173-.2-.286-.257c-.112-.059-.241-.089-.386-.089s-.273.03-.386.089a.768.768 0 0 0-.283.257c-.076.114-.134.255-.174.423s-.06.362-.06.583v.203c0 .219.02.413.06.583.04.168.099.31.177.426.078.114.173.201.286.26s.241.089.386.089a.763.763 0 0 0 .669-.349c.076-.116.134-.258.174-.426.04-.17.06-.364.06-.583zm3.65.892a.548.548 0 0 0-.034-.2.382.382 0 0 0-.12-.166c-.059-.051-.142-.102-.249-.151s-.245-.101-.414-.154a5.212 5.212 0 0 1-.537-.206 2.202 2.202 0 0 1-.446-.266 1.192 1.192 0 0 1-.303-.357.99.99 0 0 1-.109-.472.98.98 0 0 1 .114-.472c.076-.143.183-.265.32-.366.137-.103.299-.182.486-.237.189-.055.395-.083.62-.083.307 0 .575.055.803.166s.406.262.532.455c.128.192.191.412.191.66h-.852a.645.645 0 0 0-.077-.32.525.525 0 0 0-.229-.22.82.82 0 0 0-.383-.08.883.883 0 0 0-.372.069.501.501 0 0 0-.223.18.439.439 0 0 0-.074.252c0 .07.017.134.051.192.036.057.09.11.16.16s.157.096.26.14c.103.044.222.087.357.129.227.069.426.146.597.232.173.086.318.182.434.289s.204.228.263.363c.059.135.089.289.089.46 0 .181-.035.343-.106.486s-.172.264-.306.363c-.133.099-.293.174-.477.226s-.392.077-.62.077c-.206 0-.409-.027-.609-.08a1.834 1.834 0 0 1-.546-.249c-.162-.111-.292-.252-.389-.423s-.146-.374-.146-.609h.86c0 .13.02.239.06.329s.096.162.169.217a.73.73 0 0 0 .263.12c.103.025.215.037.337.037a.911.911 0 0 0 .366-.063.45.45 0 0 0 .286-.426zm3.301-3.073v4.162h-.855v-4.162h.855zm1.281 0v.672h-3.396v-.672h3.396zm3.281 3.493v.669h-2.215v-.669h2.215zm-1.935-3.493v4.162h-.857v-4.162h.857zm1.646 1.695v.652h-1.926v-.652h1.926zm.286-1.695v.672h-2.212v-.672h2.212zm.503 0h1.552c.318 0 .592.048.82.143.231.095.408.236.532.423s.186.416.186.689c0 .223-.038.415-.114.575-.074.158-.18.291-.317.397a1.638 1.638 0 0 1-.477.252l-.272.143H41.49l-.006-.669h1.003c.151 0 .275-.027.374-.08s.173-.128.223-.223a.681.681 0 0 0 .077-.332c0-.133-.025-.249-.074-.346s-.125-.172-.226-.223-.228-.077-.38-.077h-.695v3.49h-.857v-4.162zm2.327 4.162-.949-1.855.906-.006.96 1.821v.04h-.917zm4.502-1.484h-1.06v-.669h1.06a.873.873 0 0 0 .4-.08c.103-.055.178-.132.226-.229s.071-.207.071-.329c0-.124-.024-.239-.071-.346s-.123-.193-.226-.257-.236-.097-.4-.097h-.763v3.49h-.857v-4.162h1.621c.326 0 .605.059.837.177a1.264 1.264 0 0 1 .723 1.189c0 .269-.062.501-.186.697s-.303.348-.537.455c-.233.107-.512.16-.837.16zm4.944.815v.669h-2.215v-.669h2.215zm-1.935-3.493v4.162h-.857v-4.162h.857zm1.647 1.695v.652h-1.926v-.652h1.926zm.286-1.695v.672h-2.212v-.672H52.7zm2.42 0v4.162h-.855v-4.162h.855zm1.281 0v.672h-3.396v-.672h3.396zm3.281 3.493v.669h-2.215v-.669h2.215zm-1.935-3.493v4.162h-.857v-4.162h.857zm1.647 1.695v.652h-1.926v-.652h1.926zm.285-1.695v.672h-2.212v-.672h2.212zm.503 0h1.552c.318 0 .592.048.82.143.231.095.408.236.532.423s.186.416.186.689c0 .223-.038.415-.114.575-.074.158-.18.291-.317.397a1.638 1.638 0 0 1-.477.252l-.272.143h-1.349l-.006-.669h1.003c.151 0 .275-.027.374-.08s.173-.128.223-.223a.693.693 0 0 0 .077-.332c0-.133-.025-.249-.074-.346s-.125-.172-.226-.223a.84.84 0 0 0-.38-.077h-.695v3.49h-.857v-4.162zm2.327 4.162-.949-1.855.906-.006.96 1.821v.04h-.917zm3.59-1.089a.57.57 0 0 0-.034-.2.382.382 0 0 0-.12-.166c-.059-.051-.142-.102-.249-.151s-.245-.101-.414-.154a5.212 5.212 0 0 1-.537-.206 2.202 2.202 0 0 1-.446-.266 1.192 1.192 0 0 1-.303-.357.99.99 0 0 1-.109-.472.98.98 0 0 1 .114-.472c.076-.143.183-.265.32-.366.137-.103.299-.182.486-.237.189-.055.395-.083.62-.083.307 0 .575.055.803.166s.406.262.532.455c.128.192.191.412.191.66h-.852a.645.645 0 0 0-.077-.32.525.525 0 0 0-.229-.22.82.82 0 0 0-.383-.08.883.883 0 0 0-.372.069.501.501 0 0 0-.223.18.439.439 0 0 0-.074.252c0 .07.017.134.051.192.036.057.09.11.16.16s.157.096.26.14c.103.044.222.087.357.129.227.069.426.146.597.232.173.086.318.182.434.289s.204.228.263.363c.059.135.089.289.089.46 0 .181-.035.343-.106.486s-.172.264-.306.363c-.133.099-.292.174-.477.226s-.392.077-.62.077c-.206 0-.409-.027-.609-.08a1.834 1.834 0 0 1-.546-.249c-.162-.111-.292-.252-.389-.423s-.146-.374-.146-.609h.86c0 .13.02.239.06.329s.096.162.169.217a.73.73 0 0 0 .263.12c.103.025.215.037.337.037a.911.911 0 0 0 .366-.063.45.45 0 0 0 .286-.426z"/></symbol>
<symbol id="icon-instagram" viewBox="0 0 40 40">
    <path d="M39.961 11.76c-.094-2.125-.438-3.586-.93-4.853a9.755 9.755 0 0 0-2.313-3.547 9.835 9.835 0 0 0-3.54-2.305c-1.274-.492-2.727-.836-4.853-.93C26.184.023 25.504 0 20.073 0s-6.111.024-8.244.117c-2.125.094-3.587.438-4.852.93A9.759 9.759 0 0 0 3.429 3.36 9.835 9.835 0 0 0 1.124 6.9C.632 8.174.288 9.627.194 11.752c-.102 2.141-.125 2.821-.125 8.252s.024 6.11.117 8.244c.094 2.125.438 3.586.93 4.853a9.859 9.859 0 0 0 2.313 3.547 9.835 9.835 0 0 0 3.54 2.305c1.274.492 2.727.836 4.853.93 2.133.094 2.813.117 8.244.117s6.111-.023 8.244-.117c2.125-.094 3.586-.437 4.852-.93a10.229 10.229 0 0 0 5.853-5.852c.492-1.274.836-2.727.93-4.852.094-2.134.117-2.813.117-8.244s-.008-6.111-.102-8.244zm-3.602 16.331c-.086 1.954-.414 3.009-.688 3.712a6.636 6.636 0 0 1-3.798 3.798c-.703.274-1.766.602-3.712.688-2.11.094-2.742.117-8.079.117s-5.978-.023-8.08-.117c-1.954-.086-3.008-.414-3.712-.688a6.178 6.178 0 0 1-2.297-1.492A6.232 6.232 0 0 1 4.5 31.812c-.274-.703-.602-1.766-.687-3.712-.094-2.11-.117-2.743-.117-8.08s.023-5.978.117-8.08c.086-1.954.414-3.008.687-3.712A6.09 6.09 0 0 1 6.001 5.93a6.21 6.21 0 0 1 2.297-1.492c.703-.274 1.766-.602 3.712-.688 2.11-.094 2.743-.117 8.08-.117 5.345 0 5.978.024 8.08.117 1.954.086 3.009.414 3.712.688.867.32 1.656.828 2.297 1.492a6.213 6.213 0 0 1 1.492 2.298c.274.703.601 1.766.688 3.712.094 2.11.117 2.743.117 8.08s-.024 5.962-.117 8.072z"/><path d="M20.074 9.728c-5.673 0-10.275 4.602-10.275 10.275s4.603 10.275 10.275 10.275c5.673 0 10.275-4.602 10.275-10.275S25.747 9.728 20.074 9.728zm0 16.941c-3.68 0-6.665-2.985-6.665-6.665s2.985-6.665 6.665-6.665a6.666 6.666 0 0 1 0 13.33zM33.155 9.322a2.399 2.399 0 1 1-4.798 0 2.399 2.399 0 0 1 4.798 0z"/></symbol>
<symbol id="icon-linkedin" viewBox="0 0 40 40">
    <path d="M39.99 40v-.002H40v-14.67c0-7.177-1.545-12.705-9.935-12.705-4.033 0-6.74 2.213-7.845 4.312h-.117v-3.642h-7.955v26.705h8.283V26.775c0-3.482.66-6.848 4.972-6.848 4.249 0 4.312 3.973 4.312 7.072v13.002h8.275zM.66 13.295h8.293V40H.66V13.295zM4.803 0C2.151 0 0 2.152 0 4.803s2.152 4.848 4.803 4.848c2.652 0 4.803-2.197 4.803-4.848A4.806 4.806 0 0 0 4.803 0z"/></symbol>
<symbol id="icon-twitter" viewBox="0 0 40 40">
    <path d="M40 7.597a17.114 17.114 0 0 1-4.725 1.295 8.156 8.156 0 0 0 3.608-4.532 16.4 16.4 0 0 1-5.2 1.985 8.216 8.216 0 0 0-5.99-2.595c-4.54 0-8.195 3.685-8.195 8.203 0 .65.055 1.275.19 1.87-6.817-.332-12.85-3.6-16.902-8.578A8.261 8.261 0 0 0 1.663 9.39a8.212 8.212 0 0 0 3.642 6.815c-1.317-.025-2.61-.408-3.705-1.01v.09c0 3.985 2.842 7.295 6.57 8.057a8.161 8.161 0 0 1-2.15.27c-.525 0-1.055-.03-1.553-.14 1.062 3.248 4.078 5.635 7.662 5.713a16.473 16.473 0 0 1-10.168 3.497c-.673 0-1.318-.03-1.963-.112 3.633 2.342 7.938 3.68 12.58 3.68 15.09 0 23.34-12.5 23.34-23.335 0-.362-.013-.713-.03-1.06 1.627-1.155 2.995-2.598 4.11-4.258z"/></symbol>
<symbol id="icon-ya-co" viewBox="0 0 35 40">
    <path d="m5.106 0 5.964 5.682L0 5.675v27.568h28.936V22.702l5.957 5.676V-.001H5.106zm23.568 22.036L11.764 5.925h16.91v16.111zm-5.25 7.175H4.579V10.67h1.332v17.285h17.513v1.256zM8.337 38.35l-.702-1.444h-.58l1.018 1.912v1.114h.526v-1.114l1.018-1.912h-.578l-.702 1.444zm2.589-1.444h.125l1.143 3.025h-.549l-.245-.709h-1.171l-.244.709h-.546l1.139-3.025h.349zm-.555 1.903h.886l-.443-1.283-.442 1.283zm3.656-.501a3.994 3.994 0 0 1-.066-.085 1.568 1.568 0 0 1-.181-.297.731.731 0 0 1-.064-.299c0-.158.033-.294.098-.407s.157-.201.276-.262a.892.892 0 0 1 .418-.094.79.79 0 0 1 .397.094.658.658 0 0 1 .258.243.63.63 0 0 1 .091.332c0 .096-.017.183-.052.262s-.082.151-.143.216a1.488 1.488 0 0 1-.212.185l-.21.153.599.707a1.219 1.219 0 0 0 .131-.565h.432c0 .147-.015.286-.044.418a1.325 1.325 0 0 1-.221.5l.443.523h-.58l-.176-.207a1.169 1.169 0 0 1-.31.169 1.372 1.372 0 0 1-.47.079c-.201 0-.375-.037-.522-.11s-.26-.175-.341-.303a.83.83 0 0 1-.118-.443c0-.123.026-.231.077-.324a1 1 0 0 1 .21-.262 2.98 2.98 0 0 1 .28-.223zm.249.304-.063.046a.805.805 0 0 0-.164.172.518.518 0 0 0-.086.271c0 .089.019.169.056.241a.44.44 0 0 0 .168.172.55.55 0 0 0 .272.062.781.781 0 0 0 .489-.172l-.673-.792zm.119-.553.186-.125a.675.675 0 0 0 .187-.17.38.38 0 0 0 .056-.212c0-.072-.028-.138-.083-.199s-.134-.091-.235-.091a.3.3 0 0 0-.289.179.443.443 0 0 0 .013.37 1.268 1.268 0 0 0 .166.25zm5.293.887h-.519a.93.93 0 0 1-.096.335.47.47 0 0 1-.21.206.785.785 0 0 1-.359.071c-.122 0-.226-.024-.314-.073s-.159-.117-.216-.206a1.04 1.04 0 0 1-.125-.318 2.043 2.043 0 0 1-.039-.416v-.256c0-.161.015-.303.044-.428.03-.126.076-.232.135-.318s.134-.151.222-.195a.693.693 0 0 1 .312-.067c.145 0 .263.025.353.075.09.049.158.119.204.212a.944.944 0 0 1 .091.335h.519a1.315 1.315 0 0 0-.17-.538c-.091-.157-.22-.279-.386-.368s-.37-.133-.611-.133c-.19 0-.361.033-.513.1-.151.066-.28.163-.389.289a1.305 1.305 0 0 0-.249.451 1.91 1.91 0 0 0-.085.59v.251c0 .217.028.414.083.59.057.176.139.326.245.451.107.123.235.219.384.287.15.066.318.1.505.1.244 0 .451-.044.621-.133s.303-.21.397-.364c.094-.155.15-.332.166-.53zm2.886-.444v-.166c0-.229-.03-.433-.091-.613a1.33 1.33 0 0 0-.256-.463 1.09 1.09 0 0 0-.397-.293 1.25 1.25 0 0 0-.511-.102c-.186 0-.355.034-.509.102a1.116 1.116 0 0 0-.397.293 1.35 1.35 0 0 0-.258.463c-.061.18-.091.384-.091.613v.166c0 .229.03.434.091.615.062.181.15.336.262.463a1.143 1.143 0 0 0 .906.393c.187 0 .357-.033.511-.1a1.11 1.11 0 0 0 .395-.293c.111-.127.196-.282.256-.463s.089-.386.089-.615zm-.522-.171v.17c0 .169-.017.319-.05.449a.997.997 0 0 1-.141.33.614.614 0 0 1-.229.202.696.696 0 0 1-.31.066.69.69 0 0 1-.307-.066.658.658 0 0 1-.233-.202c-.064-.09-.112-.2-.145-.33s-.05-.28-.05-.449v-.17c0-.169.017-.318.05-.447a.969.969 0 0 1 .143-.326.616.616 0 0 1 .231-.199c.09-.046.192-.069.308-.069s.218.023.31.069a.61.61 0 0 1 .231.199.913.913 0 0 1 .143.326c.033.129.05.278.05.447z"/></symbol></defs>
    <symbol id="icon-close" viewBox="0 0 40 40">
<path d="M40 4.029l-4.029-4.029-15.971 15.971-15.971-15.971-4.029 4.029 15.971 15.971-15.971 15.971 4.029 4.029 15.971-15.971 15.971 15.971 4.029-4.029-15.971-15.971 15.971-15.971z"></path>
</symbol>
<symbol id="icon-email" viewBox="0 0 30 40">
    <path d="M25 10h-20c-1.375 0-2.487 1.125-2.487 2.5l-0.013 15c0 1.375 1.125 2.5 2.5 2.5h20c1.375 0 2.5-1.125 2.5-2.5v-15c0-1.375-1.125-2.5-2.5-2.5zM24.5 15.313l-8.837 5.523c-0.189 0.118-0.418 0.188-0.663 0.188s-0.475-0.070-0.669-0.191l0.005 0.003-8.837-5.523c-0.315-0.188-0.522-0.527-0.522-0.914 0-0.586 0.475-1.062 1.062-1.062 0.218 0 0.421 0.066 0.589 0.178l8.371 5.234 8.375-5.238c0.165-0.11 0.367-0.176 0.585-0.176 0.586 0 1.062 0.475 1.062 1.062 0 0.387-0.207 0.726-0.517 0.912l-0.005 0.003z"></path>
</symbol>
<symbol id="icon-person" viewBox="0 0 40 40">
    <path d="M20 20c3.682 0 6.667-2.985 6.667-6.667s-2.985-6.667-6.667-6.667v0c-3.682 0-6.667 2.985-6.667 6.667s2.985 6.667 6.667 6.667v0zM20 23.333c-4.451 0-13.333 2.233-13.333 6.667v1.667c0 0.916 0.749 1.667 1.667 1.667h23.333c0.916 0 1.667-0.751 1.667-1.667v-1.667c0-4.433-8.884-6.667-13.333-6.667z"></path>
</symbol>
<symbol id="icon-phone" viewBox="0 0 30 40">
    <path d="M24.543 23.108l-3.063-0.35c-0.084-0.010-0.181-0.016-0.279-0.016-0.664 0-1.265 0.269-1.699 0.705l-2.218 2.218c-3.44-1.775-6.175-4.508-7.902-7.847l-0.048-0.101 2.233-2.232c0.434-0.434 0.703-1.034 0.703-1.697 0-0.099-0.006-0.196-0.017-0.291l0.001 0.011-0.35-3.040c-0.144-1.208-1.162-2.135-2.397-2.135-0.001 0-0.002 0-0.003 0h-2.087c-1.363 0-2.497 1.133-2.412 2.497 0.638 10.3 8.877 18.527 19.165 19.167 1.363 0.083 2.497-1.050 2.497-2.413v-2.087c0-0.004 0-0.009 0-0.013 0-1.226-0.923-2.236-2.112-2.374l-0.011-0.001z"></path>
</symbol>
<symbol id="icon-subscribe" viewBox="0 0 40 40">
    <path d="M40 3.333l-40 18.75 12.783 3.945 19.717-15.403-14.997 16.86 0.012 0.005-0.015-0.005v9.182l7.168-6.97 9.083 2.803 6.248-29.167z"></path>
</symbol>
<symbol id="icon-checkmark" viewBox="0 0 40 40">
<path d="M33.75 5l-18.75 18.75-8.75-8.75-6.25 6.25 15 15 25-25z"></path>
</symbol>
<symbol id="icon-menu-mobile" viewBox="0 0 58 40">
<path     d="M2.45 36.442h53.706M2.45 19.519h53.706M2.45 2.596h53.706"></path>
</symbol>
    </svg>
    